<svg xmlns="http://www.w3.org/2000/svg" width="1920" height="1080" viewBox="0 0 1920 1080"><rect width="1920" height="1080" fill="#4C2FBF"/><circle cx="1500" cy="540" r="480" fill="none" stroke="#7E66DD" stroke-width="3" stroke-dasharray="14 16"/><g transform="translate(1500 300) rotate(40) scale(0.7) translate(-200 -250)"><g fill="#FFFFFF"><rect x="184" y="20" width="32" height="420" rx="16"/><path d="M184 200 L8 228 L8 258 L184 264 Z"/><path d="M216 200 L392 228 L392 258 L216 264 Z"/><path d="M186 396 L106 424 L106 442 L186 434 Z"/><path d="M214 396 L294 424 L294 442 L214 434 Z"/><rect x="62" y="196" width="14" height="66" rx="7"/><ellipse cx="69" cy="190" rx="3" ry="30"/><rect x="126" y="196" width="14" height="66" rx="7"/><ellipse cx="133" cy="190" rx="3" ry="30"/><rect x="324" y="196" width="14" height="66" rx="7"/><ellipse cx="331" cy="190" rx="3" ry="30"/><rect x="260" y="196" width="14" height="66" rx="7"/><ellipse cx="267" cy="190" rx="3" ry="30"/></g></g><g transform="translate(1240 540) rotate(40) scale(0.7) translate(-200 -250)"><g fill="#FFFFFF"><rect x="184" y="20" width="32" height="420" rx="16"/><path d="M184 200 L8 228 L8 258 L184 264 Z"/><path d="M216 200 L392 228 L392 258 L216 264 Z"/><path d="M186 396 L106 424 L106 442 L186 434 Z"/><path d="M214 396 L294 424 L294 442 L214 434 Z"/><rect x="62" y="196" width="14" height="66" rx="7"/><ellipse cx="69" cy="190" rx="3" ry="30"/><rect x="126" y="196" width="14" height="66" rx="7"/><ellipse cx="133" cy="190" rx="3" ry="30"/><rect x="324" y="196" width="14" height="66" rx="7"/><ellipse cx="331" cy="190" rx="3" ry="30"/><rect x="260" y="196" width="14" height="66" rx="7"/><ellipse cx="267" cy="190" rx="3" ry="30"/></g></g><g transform="translate(1740 540) rotate(40) scale(0.7) translate(-200 -250)"><g fill="#FFFFFF"><rect x="184" y="20" width="32" height="420" rx="16"/><path d="M184 200 L8 228 L8 258 L184 264 Z"/><path d="M216 200 L392 228 L392 258 L216 264 Z"/><path d="M186 396 L106 424 L106 442 L186 434 Z"/><path d="M214 396 L294 424 L294 442 L214 434 Z"/><rect x="62" y="196" width="14" height="66" rx="7"/><ellipse cx="69" cy="190" rx="3" ry="30"/><rect x="126" y="196" width="14" height="66" rx="7"/><ellipse cx="133" cy="190" rx="3" ry="30"/><rect x="324" y="196" width="14" height="66" rx="7"/><ellipse cx="331" cy="190" rx="3" ry="30"/><rect x="260" y="196" width="14" height="66" rx="7"/><ellipse cx="267" cy="190" rx="3" ry="30"/></g></g><g transform="translate(1500 780) rotate(40) scale(0.7) translate(-200 -250)"><g fill="#FFFFFF"><rect x="184" y="20" width="32" height="420" rx="16"/><path d="M184 200 L8 228 L8 258 L184 264 Z"/><path d="M216 200 L392 228 L392 258 L216 264 Z"/><path d="M186 396 L106 424 L106 442 L186 434 Z"/><path d="M214 396 L294 424 L294 442 L214 434 Z"/><rect x="62" y="196" width="14" height="66" rx="7"/><ellipse cx="69" cy="190" rx="3" ry="30"/><rect x="126" y="196" width="14" height="66" rx="7"/><ellipse cx="133" cy="190" rx="3" ry="30"/><rect x="324" y="196" width="14" height="66" rx="7"/><ellipse cx="331" cy="190" rx="3" ry="30"/><rect x="260" y="196" width="14" height="66" rx="7"/><ellipse cx="267" cy="190" rx="3" ry="30"/></g></g></svg>